# xmcd
#
# Track frame offsets:
#	150
#	12842
#	21620
#	34220
#	44192
#	56717
#	67517
#	83380
#	94695
#	103920
#	112545
#	119972
#	136622
#	152972
#	166172
#
# Disc length: 2443 seconds
# Revision: 0
# Processed by: cddbd v1.5.2PL0 Copyright (c) Steve Scherf et al.
# Submitted via: dBpowerAMP V12.0
#
DISCID=bf09890f
DTITLE=Norman Blake - Back Home In Sulphur Springs
DYEAR=1995
DGENRE=Country
TTITLE0=Little Joe
TTITLE1=Richland Avenue Rag
TTITLE2=When The Fields Are White With Daisies
TTITLE3=Cattle In The Cane
TTITLE4=Crossing No. 9
TTITLE5=Weave And Way
TTITLE6=Ginseng Sullivan
TTITLE7=Bringing In The Georgia Mail
TTITLE8=Bully Of The Town
TTITLE9=Randall Collins
TTITLE10=Done Gone
TTITLE11=Down Home Summertime Blues
TTITLE12=Warp Factor No. 9
TTITLE13=Orphan Annie
TTITLE14=Spanish Fandango
EXTD=
EXTT0=
EXTT1=
EXTT2=
EXTT3=
EXTT4=
EXTT5=
EXTT6=
EXTT7=
EXTT8=
EXTT9=
EXTT10=
EXTT11=
EXTT12=
EXTT13=
EXTT14=
PLAYORDER=
